# xmcd
#
# Track frame offsets: 
#        300
#        2946
#        19140
#        38610
#        59731
#        75990
#        92327
#        109952
#        129041
#        152391
#
# Disc length: 2245 seconds
#
# Revision: 0
# Processed by: cddbd v1.5.2PL0 Copyright (c) Steve Scherf et al.
# Submitted via: ExactAudioCopy v0.99pb5
#
DISCID=6908c10a
DTITLE=Tumbledown House - Tumbledown House
DYEAR=2009
DGENRE=Bluegrass
TTITLE0=Midnight at The Openly Lewd (intro)
TTITLE1=Right Hand Man
TTITLE2=Sweaty Tennessee
TTITLE3=Brothers McGhee
TTITLE4=Poor Mans Song
TTITLE5=My Papas Waltz
TTITLE6=Old Potosi
TTITLE7=St. James Infirmary
TTITLE8=After A Fire
TTITLE9=Jug O Rossi
EXTD=
EXTT0=
EXTT1=
EXTT2=
EXTT3=
EXTT4=
EXTT5=
EXTT6=
EXTT7=
EXTT8=
EXTT9=
PLAYORDER=
